<svg width="15" height="16" viewBox="0 0 15 16" fill="none" xmlns="http://www.w3.org/2000/svg">
<path d="M14.0625 2H12.1875V0H9.375V2H5.625V0H2.8125V2H0.9375C0.42 2 0 2.448 0 3V15C0 15.552 0.42 16 0.9375 16H14.0625C14.58 16 15 15.552 15 15V3C15 2.448 14.58 2 14.0625 2ZM13.125 14H1.875V5H13.125V14Z" fill="#888888"/>
<path d="M5.625 7H3.75V9H5.625V7Z" fill="#888888"/>
<path d="M8.4375 7H6.5625V9H8.4375V7Z" fill="#888888"/>
<path d="M5.625 10H3.75V12H5.625V10Z" fill="#888888"/>
<path d="M8.4375 10H6.5625V12H8.4375V10Z" fill="#888888"/>
<path d="M11.25 7H9.375V9H11.25V7Z" fill="#888888"/>
<path d="M11.25 10H9.375V12H11.25V10Z" fill="#888888"/>
</svg>
