<?xml version="1.0" encoding="UTF-8"?>
<svg width="31px" height="30px" viewBox="0 0 31 30" version="1.1" xmlns="http://www.w3.org/2000/svg" xmlns:xlink="http://www.w3.org/1999/xlink">
    <!-- Generator: Sketch 50.2 (55047) - http://www.bohemiancoding.com/sketch -->
    <title>Cart</title>
    <desc>Created with Sketch.</desc>
    <defs></defs>
    <g id="Page-1" stroke="none" stroke-width="1" fill="none" fill-rule="evenodd">
        <path d="M4.35833333,2 L1,2 C0.44771525,2 6.76353751e-17,1.55228475 0,1 L0,1 C-6.76353751e-17,0.44771525 0.44771525,-1.20591542e-16 1,-2.22044605e-16 L5.90985257,0 L7.58525471,7 L29.7192236,7 C30.2715083,7 30.7192236,7.44771525 30.7192236,8 C30.7192236,8.08176181 30.7091962,8.16321502 30.6893661,8.24253563 L27.094683,22.6212678 C27.0390372,22.8438513 26.8390456,23 26.6096118,23 L9.41496314,23 C9.17435561,23 8.96786826,22.8286307 8.92352705,22.5921443 L7.5,15 L4.35833333,2 Z M10.6598526,21 L25.4384472,21 L28.4384472,9 L8.40985257,9 L10.6598526,21 Z M13.5,30 C12.1192881,30 11,28.8807119 11,27.5 C11,26.1192881 12.1192881,25 13.5,25 C14.8807119,25 16,26.1192881 16,27.5 C16,28.8807119 14.8807119,30 13.5,30 Z M22.5,30 C21.1192881,30 20,28.8807119 20,27.5 C20,26.1192881 21.1192881,25 22.5,25 C23.8807119,25 25,26.1192881 25,27.5 C25,28.8807119 23.8807119,30 22.5,30 Z" id="Cart" fill="#FE7728" fill-rule="nonzero"></path>
    </g>
</svg>