<?xml version="1.0" encoding="UTF-8"?>
<svg width="31px" height="32px" viewBox="0 0 31 32" version="1.1" xmlns="http://www.w3.org/2000/svg" xmlns:xlink="http://www.w3.org/1999/xlink">
    <!-- Generator: Sketch 50.2 (55047) - http://www.bohemiancoding.com/sketch -->
    <title>Compare</title>
    <desc>Created with Sketch.</desc>
    <defs></defs>
    <g id="Page-1" stroke="none" stroke-width="1" fill="none" fill-rule="evenodd">
        <path d="M23,0 L30,0 C30.5522847,0 31,0.44771525 31,1 L31,31 C31,31.5522847 30.5522847,32 30,32 L23,32 C22.4477153,32 22,31.5522847 22,31 L22,1 C22,0.44771525 22.4477153,0 23,0 Z M1,10 L8,10 C8.55228475,10 9,10.4477153 9,11 L9,31 C9,31.5522847 8.55228475,32 8,32 L1,32 C0.44771525,32 0,31.5522847 0,31 L0,11 C0,10.4477153 0.44771525,10 1,10 Z M12,16 L19,16 C19.5522847,16 20,16.4477153 20,17 L20,31 C20,31.5522847 19.5522847,32 19,32 L12,32 C11.4477153,32 11,31.5522847 11,31 L11,17 C11,16.4477153 11.4477153,16 12,16 Z M13,18 L13,30 L18,30 L18,18 L13,18 Z M24,2 L24,30 L29,30 L29,2 L24,2 Z M2,12 L2,30 L7,30 L7,12 L2,12 Z" id="Compare" fill="#FE7728" fill-rule="nonzero"></path>
    </g>
</svg>