<?xml version="1.0" encoding="UTF-8"?>
<svg width="37px" height="24px" viewBox="0 0 37 24" version="1.1" xmlns="http://www.w3.org/2000/svg" xmlns:xlink="http://www.w3.org/1999/xlink">
    <!-- Generator: Sketch 50.2 (55047) - http://www.bohemiancoding.com/sketch -->
    <title>Hand shake</title>
    <desc>Created with Sketch.</desc>
    <defs></defs>
    <g id="Page-1" stroke="none" stroke-width="1" fill="none" fill-rule="evenodd">
        <g id="Hand-shake" fill="#FF770D" fill-rule="nonzero">
            <path d="M6.9149632,13.4159146 C9.41851786,15.8625523 13.9103173,18.7428285 20.3785428,22.0385539 L20.3691033,22.0570799 L21.3396468,22.5515965 C21.8317361,22.8023285 22.4339118,22.6066698 22.6846438,22.1145805 C22.9353759,21.6224912 22.7397171,21.0203155 22.2476278,20.7695835 L16.9015887,18.0456405 L17.3555792,17.1546339 L22.7016183,19.8785769 L24.4836313,20.7865579 C24.9757207,21.03729 25.5778963,20.8416312 25.8286284,20.3495419 C26.0793604,19.8574526 25.8837017,19.2552769 25.3916123,19.0045449 L19.1545667,15.8266114 L19.6085572,14.9356049 L25.8456028,18.1135384 L26.7366094,18.5675289 C27.2286987,18.8182609 27.8308744,18.6226021 28.0816064,18.1305128 C28.3323384,17.6384235 28.1366797,17.0362478 27.6445904,16.7855158 L21.4075447,13.6075823 L21.8615352,12.7165758 L26.3165678,14.9865283 L27.2075743,15.4405188 C27.6996637,15.6912508 28.3018393,15.4955921 28.5525714,15.0035028 C28.8033034,14.5114134 28.6076447,13.9092378 28.1155553,13.6585057 L25.4425358,12.2965342 L25.8965263,11.4055277 L28.5695458,12.7674992 C29.5537245,13.2689633 29.945042,14.4733146 29.4435779,15.4574933 C29.2566887,15.8242839 28.9721716,16.1087287 28.6378082,16.2953024 C29.2078179,16.8925276 29.3686751,17.8071876 28.9726129,18.5845033 C28.5765508,19.3618191 27.7420258,19.7693066 26.9238172,19.6591992 C26.9694098,20.0393701 26.9065241,20.4367417 26.7196349,20.8035324 C26.2181708,21.787711 25.0138195,22.1790285 24.0296408,21.6775645 L23.7912392,21.5560928 C23.80931,21.8954588 23.7410332,22.2439888 23.5756503,22.568571 C23.0741863,23.5527496 21.8698349,23.9440671 20.8856563,23.442603 L19.1036432,22.534622 L19.1143546,22.5135998 C13.178708,19.4425615 8.95729297,16.7251678 6.44063463,14.3468368 L6.19253589,14.833758 L0.846496741,12.109815 L6.74837324,0.526730192 L12.0944124,3.25067319 L6.9149632,13.4159146 Z M7.18538926,1.87172722 L2.19149377,11.672799 L5.75551986,13.488761 L10.7494154,3.68768921 L7.18538926,1.87172722 Z" id="Combined-Shape"></path>
            <path d="M15.8094496,8.41648529 C13.7018704,9.12972873 12.3827821,8.21815646 12.1309587,5.90927397 L12.0877834,5.51341418 L12.4639418,5.38274703 C16.4116189,4.01143211 18.9770343,3.11843533 20.159653,2.70394397 C22.0587204,2.03834738 22.7983633,2.0366719 24.4308041,2.71397426 C25.300549,3.0748328 26.1319614,3.01110243 26.9740425,2.51576612 L27.4810584,3.37770282 C26.3706618,4.03086997 25.2098348,4.11985102 24.0475783,3.63762894 C22.6532716,3.05912881 22.1664492,3.06023159 20.4904121,3.64765922 C19.3459123,4.0487904 16.9095548,4.8969544 13.1808562,6.19232046 C13.4286956,7.56346059 14.1261468,7.93043424 15.4888902,7.46925689 C17.2806223,6.86290194 18.5010602,6.43966635 19.1466148,6.20089076 L19.5648022,6.04621299 L19.7661719,6.44402719 C21.4029988,9.67764637 23.3333717,10.4540719 25.7888388,8.95031501 L26.3110961,9.80310295 C23.4199551,11.5736717 20.9407825,10.6826895 19.0808824,7.28863376 C18.3737845,7.54177755 17.2839643,7.91748253 15.8094496,8.41648529 Z M26.5450293,2.47855614 L32.2181408,0.525147218 L36.4505268,12.8168887 L30.7774153,14.7702976 L26.5450293,2.47855614 Z M27.816116,3.09850657 L31.3973657,13.4992109 L35.17944,12.1969383 L31.5981903,1.79623395 L27.816116,3.09850657 Z" id="Combined-Shape"></path>
        </g>
    </g>
</svg>