<?xml version="1.0" encoding="UTF-8"?>
<svg width="25px" height="29px" viewBox="0 0 25 29" version="1.1" xmlns="http://www.w3.org/2000/svg" xmlns:xlink="http://www.w3.org/1999/xlink">
    <!-- Generator: Sketch 50.2 (55047) - http://www.bohemiancoding.com/sketch -->
    <title>Idea</title>
    <desc>Created with Sketch.</desc>
    <defs></defs>
    <g id="Page-1" stroke="none" stroke-width="1" fill="none" fill-rule="evenodd">
        <g id="Idea" fill="#FF770D" fill-rule="nonzero">
            <path d="M16,23.7782894 L16,25 C16,25.7449237 15.5927423,26.3947272 14.988733,26.7389044 C14.8684601,28.0075488 13.8001298,29 12.5,29 C11.1998702,29 10.1315399,28.0075488 10.011267,26.7389044 C9.40725774,26.3947272 9,25.7449237 9,25 L9,24 L8.99734287,24 L8.99734287,23.7098134 C8.89648518,22.3082546 8.62172459,21.4302193 8.04725233,20.515618 C7.74460347,20.0337793 7.62081625,19.8716118 6.57077526,18.542174 C4.68827133,16.4044878 3.8288329,14.1822878 4.02071491,11.8944432 C4.33112256,7.48263162 8.00695079,4 12.4958425,4 C16.9839821,4 20.6593305,7.48146448 20.9708138,11.8922253 C21.1740448,14.1802882 20.3146802,16.403526 18.4313293,18.542174 C17.3812883,19.8716118 17.257501,20.0337793 16.9548522,20.515618 C16.3710808,21.4450241 16.0968026,22.3366709 16,23.7782894 Z M9.93275016,23 L15.0693544,23 C15.2197135,21.7813243 15.5381517,20.8916072 16.1085062,19.9835617 C16.4395945,19.4564453 16.565827,19.2910744 17.6643102,17.9014926 C19.3878395,15.9432697 20.1471973,13.9890334 19.9871217,12 L19.9762323,12 C19.7190496,8.09098409 16.4682603,5 12.4958425,5 C8.52342476,5 5.27263553,8.09098409 5.01545278,12 L5.01498285,12 C4.85490722,13.9890334 5.61426502,15.9432697 7.33779437,17.9014926 C8.43627753,19.2910744 8.56251001,19.4564453 8.89359831,19.9835617 C9.46395285,20.8916072 9.78239106,21.7813243 9.93275016,23 Z M11.0853529,27 C11.2912711,27.5825962 11.8468906,28 12.5,28 C13.1531094,28 13.7087289,27.5825962 13.9146471,27 L11.0853529,27 Z M10,24 L10,25 C10,25.5522847 10.4477153,26 11,26 L14,26 C14.5522847,26 15,25.5522847 15,25 L15,24 L10,24 Z M12.5,0 C12.7761424,-5.07265313e-17 13,0.223857625 13,0.5 L13,2.5 C13,2.77614237 12.7761424,3 12.5,3 C12.2238576,3 12,2.77614237 12,2.5 L12,0.5 C12,0.223857625 12.2238576,5.07265313e-17 12.5,0 Z M25,13.5 C25,13.7761424 24.7761424,14 24.5,14 L22.5,14 C22.2238576,14 22,13.7761424 22,13.5 C22,13.2238576 22.2238576,13 22.5,13 L24.5,13 C24.7761424,13 25,13.2238576 25,13.5 Z M3,13.5 C3,13.7761424 2.77614237,14 2.5,14 L0.5,14 C0.223857625,14 0,13.7761424 0,13.5 C0,13.2238576 0.223857625,13 0.5,13 L2.5,13 C2.77614237,13 3,13.2238576 3,13.5 Z M5.04594155,20.9540585 C5.24120369,21.1493206 5.24120369,21.4659031 5.04594155,21.6611652 L3.66116524,23.0459415 C3.46590309,23.2412037 3.1493206,23.2412037 2.95405845,23.0459415 C2.75879631,22.8506794 2.75879631,22.5340969 2.95405845,22.3388348 L4.33883476,20.9540585 C4.53409691,20.7587963 4.8506794,20.7587963 5.04594155,20.9540585 Z M20.6611652,20.9540585 L22.0459415,22.3388348 C22.2412037,22.5340969 22.2412037,22.8506794 22.0459415,23.0459415 C21.8506794,23.2412037 21.5340969,23.2412037 21.3388348,23.0459415 L19.9540585,21.6611652 C19.7587963,21.4659031 19.7587963,21.1493206 19.9540585,20.9540585 C20.1493206,20.7587963 20.4659031,20.7587963 20.6611652,20.9540585 Z M2.95405845,3.95405845 C3.1493206,3.75879631 3.46590309,3.75879631 3.66116524,3.95405845 L5.04594155,5.33883476 C5.24120369,5.53409691 5.24120369,5.8506794 5.04594155,6.04594155 C4.8506794,6.24120369 4.53409691,6.24120369 4.33883476,6.04594155 L2.95405845,4.66116524 C2.75879631,4.46590309 2.75879631,4.1493206 2.95405845,3.95405845 Z M22.0459415,3.95405845 C22.2412037,4.1493206 22.2412037,4.46590309 22.0459415,4.66116524 L20.6611652,6.04594155 C20.4659031,6.24120369 20.1493206,6.24120369 19.9540585,6.04594155 C19.7587963,5.8506794 19.7587963,5.53409691 19.9540585,5.33883476 L21.3388348,3.95405845 C21.5340969,3.75879631 21.8506794,3.75879631 22.0459415,3.95405845 Z M13.3681491,7.98230211 C13.1017809,7.90948284 12.9448786,7.63451715 13.0176979,7.36814905 C13.0905172,7.10178095 13.3654828,6.94487862 13.6318509,7.01769789 C14.759434,7.32595466 15.6926746,7.84482075 16.4227062,8.57485237 C17.1526399,9.30478607 17.6722488,10.2386546 17.9821635,11.367643 C18.0552622,11.6339345 17.8986486,11.9090647 17.632357,11.9821635 C17.3660655,12.0552622 17.0909353,11.8986486 17.0178365,11.632357 C16.7522486,10.6648467 16.3179593,9.88431903 15.7155994,9.28195915 C15.1133375,8.67969719 14.3338096,8.24629277 13.3681491,7.98230211 Z" id="idea"></path>
        </g>
    </g>
</svg>