<?xml version="1.0" encoding="UTF-8"?>
<svg width="19px" height="27px" viewBox="0 0 19 27" version="1.1" xmlns="http://www.w3.org/2000/svg" xmlns:xlink="http://www.w3.org/1999/xlink">
    <!-- Generator: Sketch 50.2 (55047) - http://www.bohemiancoding.com/sketch -->
    <title>Location</title>
    <desc>Created with Sketch.</desc>
    <defs></defs>
    <g id="Page-1" stroke="none" stroke-width="1" fill="none" fill-rule="evenodd">
        <g id="Location" fill="#FF7711" fill-rule="nonzero">
            <path d="M0,9.45 C0,4.185 4.20714286,0 9.5,0 C14.7928571,0 19,4.185 19,9.45 C19,16.4653623 9.51254816,26.9860883 9.50001243,26.9999862 C9.49371704,26.9930351 -2.84217094e-14,16.4676782 0,9.45 Z M10.2080581,24.6146572 C11.304123,23.2647667 12.400306,21.8067279 13.421781,20.2970954 C14.7280694,18.3665387 15.8137292,16.4946327 16.6040764,14.7425576 C17.5156039,12.7218452 18,10.9321289 18,9.45 C18,4.73846949 14.2417502,1 9.5,1 C4.75824976,1 1,4.73846949 1,9.45 C1,10.9321289 1.48439613,12.7218452 2.39592359,14.7425576 C3.18627083,16.4946327 4.27193062,18.3665387 5.57821899,20.2970954 C6.59969398,21.8067279 7.69587698,23.2647667 8.79194192,24.6146572 C9.04046162,24.9207288 9.2773275,25.2067846 9.5,25.4709316 C9.7226725,25.2067846 9.95953838,24.9207288 10.2080581,24.6146572 Z M9.5,14 C7.01471863,14 5,11.9852814 5,9.5 C5,7.01471863 7.01471863,5 9.5,5 C11.9852814,5 14,7.01471863 14,9.5 C14,11.9852814 11.9852814,14 9.5,14 Z M9.5,13 C11.4329966,13 13,11.4329966 13,9.5 C13,7.56700338 11.4329966,6 9.5,6 C7.56700338,6 6,7.56700338 6,9.5 C6,11.4329966 7.56700338,13 9.5,13 Z"></path>
        </g>
    </g>
</svg>