<?xml version="1.0" encoding="UTF-8"?>
<svg width="16px" height="15px" viewBox="0 0 16 15" version="1.1" xmlns="http://www.w3.org/2000/svg" xmlns:xlink="http://www.w3.org/1999/xlink">
    <!-- Generator: Sketch 50.2 (55047) - http://www.bohemiancoding.com/sketch -->
    <title>Wish List/mini</title>
    <desc>Created with Sketch.</desc>
    <defs></defs>
    <g id="Page-1" stroke="none" stroke-width="1" fill="none" fill-rule="evenodd">
        <path d="M7.61283403,13.2243581 C7.61234255,13.2248459 7.61185182,13.2253348 7.61136184,13.2258248 L7.61283437,13.2243577 Z M7.99732704,12.8412953 L13.9937467,6.86718127 C14.6441917,6.21673629 14.9999813,5.35845392 14.9999854,4.43723458 C15.0026171,3.51877672 14.6494993,2.66198716 14.0005307,2.01301851 C13.3510967,1.36358456 12.4966271,1.01017594 11.5768413,1.01017594 C10.6584873,1.01017594 9.80020489,1.36596552 9.14975991,2.01641049 L8.0050879,3.1610825 L6.85363193,2.00962654 C6.20217751,1.35817211 5.34008955,1 4.42315857,1 C3.50833811,1 2.65001437,1.35568936 2.00286115,2.00284258 C1.35217008,2.65353365 0.997389755,3.51103358 1.00001857,4.42992396 C1.00001857,5.34483596 1.35675053,6.20071878 2.00964511,6.85361336 L7.99732704,12.8412953 Z" id="Wish-List/mini" stroke="#FE7728" stroke-width="2" fill-rule="nonzero"></path>
    </g>
</svg>