<?xml version="1.0" encoding="UTF-8"?>
<svg width="28px" height="28px" viewBox="0 0 28 28" version="1.1" xmlns="http://www.w3.org/2000/svg" xmlns:xlink="http://www.w3.org/1999/xlink">
    <!-- Generator: Sketch 50.2 (55047) - http://www.bohemiancoding.com/sketch -->
    <title>Phone</title>
    <desc>Created with Sketch.</desc>
    <defs></defs>
    <g id="Page-1" stroke="none" stroke-width="1" fill="none" fill-rule="evenodd">
        <path d="M24.317266,19.2463469 C20.8860434,16.4888276 19.9265632,17.8443531 18.3696752,19.4010108 C17.2828249,20.4883218 14.5322153,18.217769 12.1572673,15.8426482 C9.78214648,13.4672972 7.51211191,10.7172058 8.59890471,9.6301251 C10.1558503,8.07340986 11.5109728,7.11335389 8.75264725,3.68316772 C5.99524305,0.251599586 4.15712714,2.88612491 2.64901067,4.39435654 C0.907919546,6.13487185 2.55728338,12.6210222 8.96771407,19.0326045 C15.3790661,25.4431504 21.8652164,27.0914201 23.6053286,25.3515958 C25.1132148,23.8431914 27.7485462,22.0053058 24.317266,19.2463469 Z M10.756525,11.1629538 C11.3247484,12.0367391 12.2961005,13.1529307 13.5715322,14.4284861 C14.846758,15.7038046 15.9630356,16.6753245 16.836873,17.2436068 C17.0459386,17.3795683 17.229664,17.4843637 17.3794396,17.5581948 C17.578688,17.3574534 17.7262256,17.21331 17.8767918,17.0742889 C20.0721955,15.0472229 22.4037438,15.1427126 25.5701274,17.6873927 C27.4362491,19.1878684 28.2742001,20.8712898 27.9245284,22.670805 C27.6752183,23.9538291 27.0077734,24.8490037 25.7587177,26.0547786 C25.7739483,26.0400758 25.1599497,26.6253537 25.0194252,26.7659264 C21.9019175,29.8829182 14.0161248,26.9086298 7.55337349,20.446691 C1.09095886,13.9831154 -1.88350644,6.0974152 1.23474312,2.98019697 C1.37475434,2.84017506 1.95817141,2.22798453 1.94498542,2.24164644 C3.15069731,0.992416928 4.04592056,0.324816195 5.32894143,0.075474451 C7.12865382,-0.274280912 8.81201096,0.56407753 10.3112377,2.42985385 C12.8571215,5.5958527 12.9528764,7.9278426 10.9252485,10.1235506 C10.7862465,10.2740751 10.6420934,10.4216034 10.4528672,10.6094223 C10.5157329,10.7700863 10.6205419,10.9538459 10.756525,11.1629538 Z" id="Phone" fill="#FE7728" fill-rule="nonzero"></path>
    </g>
</svg>