<?xml version="1.0" encoding="UTF-8"?>
<svg width="29px" height="29px" viewBox="0 0 29 29" version="1.1" xmlns="http://www.w3.org/2000/svg" xmlns:xlink="http://www.w3.org/1999/xlink">
    <!-- Generator: Sketch 50.2 (55047) - http://www.bohemiancoding.com/sketch -->
    <title>Search</title>
    <desc>Created with Sketch.</desc>
    <defs></defs>
    <g id="Page-1" stroke="none" stroke-width="1" fill="none" fill-rule="evenodd">
        <path d="M20.3082208,18.8940072 L27.8994949,26.4852814 C28.2900192,26.8758057 28.2900192,27.5089706 27.8994949,27.8994949 C27.5089706,28.2900192 26.8758057,28.2900192 26.4852814,27.8994949 L18.8940072,20.3082208 C16.8948717,21.9881398 14.3156022,23 11.5,23 C5.14872538,23 0,17.8512746 0,11.5 C0,5.14872538 5.14872538,0 11.5,0 C17.8512746,0 23,5.14872538 23,11.5 C23,14.3156022 21.9881398,16.8948717 20.3082208,18.8940072 Z M11.5,21 C16.7467051,21 21,16.7467051 21,11.5 C21,6.25329488 16.7467051,2 11.5,2 C6.25329488,2 2,6.25329488 2,11.5 C2,16.7467051 6.25329488,21 11.5,21 Z" id="Search" fill="#FE7728" fill-rule="nonzero"></path>
    </g>
</svg>