<?xml version="1.0" encoding="UTF-8"?>
<svg width="31px" height="29px" viewBox="0 0 31 29" version="1.1" xmlns="http://www.w3.org/2000/svg" xmlns:xlink="http://www.w3.org/1999/xlink">
    <!-- Generator: Sketch 50.2 (55047) - http://www.bohemiancoding.com/sketch -->
    <title>User (Mobile)</title>
    <desc>Created with Sketch.</desc>
    <defs></defs>
    <g id="Page-1" stroke="none" stroke-width="1" fill="none" fill-rule="evenodd">
        <path d="M11.6015834,14.6834261 C9.43180678,13.2525917 8,10.7935041 8,8 C8,3.581722 11.581722,0 16,0 C20.418278,0 24,3.581722 24,8 C24,10.7834358 22.5784956,13.2348614 20.4218486,14.6679151 C25.8319033,16.5184244 30.2315249,22.0376401 30.9093625,29 L0.0912113463,29 C0.773651044,22.0569865 5.23052591,16.5491081 11.6015834,14.6834261 Z M28.557117,27 C27.0627617,20.623842 21.9812174,16 16.46875,16 C9.49277027,16 4.01056331,20.4628349 2.44834442,27 L28.557117,27 Z M16,14 C19.3137085,14 22,11.3137085 22,8 C22,4.6862915 19.3137085,2 16,2 C12.6862915,2 10,4.6862915 10,8 C10,11.3137085 12.6862915,14 16,14 Z" id="User-(Mobile)" fill="#FE7728" fill-rule="nonzero"></path>
    </g>
</svg>