<?xml version="1.0" encoding="UTF-8"?>
<svg width="20px" height="17px" viewBox="0 0 20 17" version="1.1" xmlns="http://www.w3.org/2000/svg" xmlns:xlink="http://www.w3.org/1999/xlink">
    <!-- Generator: Sketch 50.2 (55047) - http://www.bohemiancoding.com/sketch -->
    <title>User</title>
    <desc>Created with Sketch.</desc>
    <defs></defs>
    <g id="Page-1" stroke="none" stroke-width="1" fill="none" fill-rule="evenodd">
        <path d="M13.4560332,8.61329647 C16.9765371,9.90991468 19.5664395,13.1305211 19.9506248,17 L0.0493752426,17 C0.433560505,13.1305211 3.0234629,9.90991468 6.54396677,8.61329647 C5.592539,7.70302603 5,6.42071046 5,5 C5,2.23857625 7.23857625,0 10,0 C12.7614237,0 15,2.23857625 15,5 C15,6.42071046 14.407461,7.70302603 13.4560332,8.61329647 Z M10,8 C11.6568542,8 13,6.65685425 13,5 C13,3.34314575 11.6568542,2 10,2 C8.34314575,2 7,3.34314575 7,5 C7,6.65685425 8.34314575,8 10,8 Z M10,10 C6.66109892,10 3.77114509,12.0556404 2.58035232,15 L17.4196477,15 C16.2288549,12.0556404 13.3389011,10 10,10 Z" id="User" fill="#FE7728" fill-rule="nonzero"></path>
    </g>
</svg>