<?xml version="1.0" encoding="UTF-8"?>
<svg width="32px" height="28px" viewBox="0 0 32 28" version="1.1" xmlns="http://www.w3.org/2000/svg" xmlns:xlink="http://www.w3.org/1999/xlink">
    <!-- Generator: Sketch 50.2 (55047) - http://www.bohemiancoding.com/sketch -->
    <title>Wish List Copy</title>
    <desc>Created with Sketch.</desc>
    <defs></defs>
    <g id="Page-1" stroke="none" stroke-width="1" fill="none" fill-rule="evenodd">
        <path d="M27.8484229,13.6627095 C29.1413862,12.3697462 29.8486022,10.6637068 29.8486104,8.83246565 C29.8538417,7.00675578 29.1519431,5.30369953 27.8619266,4.01368306 C26.5709777,2.72273417 24.8725286,2.02025561 23.0441653,2.02025561 C21.2186548,2.02025561 19.5126153,2.72747164 18.219652,4.02043493 L15.9344474,6.30563957 L13.635739,4.00693119 C12.3407645,2.71195665 10.627149,2 8.80447391,2 C6.98599672,2 5.27987506,2.70701682 3.99346442,3.99342745 C2.70001611,5.28687576 1.99481139,6.99134741 2.00003697,8.81794068 C2.00003697,10.6365931 2.70912424,12.3378581 4.00696816,13.635702 L15.9190115,25.5477454 L27.8484229,13.6627095 Z M15.9344474,3.47721244 L16.8054385,2.60622136 C18.4731501,0.938509766 20.687763,0.0202556065 23.0441653,0.0202556065 C25.4005675,0.0202556065 27.6084286,0.931757897 29.2761402,2.5994695 C30.9438518,4.26718109 31.8553541,6.48179407 31.8486022,8.83819629 C31.8486022,11.1945985 30.930348,13.4092115 29.2626364,15.0769231 L16.5556193,27.7366771 C16.3800707,27.9122257 16.1437553,28 15.9141918,28 C15.6846282,28 15.4483128,27.9054738 15.2727642,27.7299252 L2.5927546,15.0499156 C0.925043,13.382204 3.69713238e-05,11.1743429 3.69713238e-05,8.81794068 C-0.0067148975,6.46153846 0.911539262,4.24692549 2.57925086,2.57921389 C4.24021059,0.91825416 6.45482356,0 8.80447391,0 C11.1608761,0 13.382241,0.925006028 15.0499526,2.59271763 L15.9344474,3.47721244 Z" id="Wish-List-Copy" fill="#FE7728" fill-rule="nonzero"></path>
    </g>
</svg>